<svg aria-hidden="true" style="width:0;height:0;position:absolute;overflow:hidden" xmlns="http://www.w3.org/2000/svg"><defs><symbol id="icon-location" viewBox="0 0 32 32"><path d="M26.597 6.742A11.447 11.447 0 0 0 16.911.033a12.591 12.591 0 0 0-1.822 0 11.447 11.447 0 0 0-9.686 6.709 12.192 12.192 0 0 0 1.188 12.306l8.508 11.595a1.12 1.12 0 0 0 .899.455 1.116 1.116 0 0 0 .899-.455l8.508-11.595a12.196 12.196 0 0 0 1.188-12.306zm-10.596 8.514a3.59 3.59 0 0 1-3.523-4.295 3.587 3.587 0 0 1 2.823-2.823 3.597 3.597 0 0 1 3.689 1.527 3.59 3.59 0 0 1-2.987 5.589z"/></symbol><symbol id="icon-search" viewBox="0 0 32 32"><path fill="none" stroke="#fff" style="stroke:var(--color1,#fff)" stroke-linejoin="round" stroke-linecap="round" stroke-width="3.2" d="M13.292 22.94c5.573 0 10.092-4.658 10.092-10.403S18.866 2.134 13.292 2.134C7.719 2.134 3.2 6.792 3.2 12.537S7.718 22.94 13.292 22.94zM28.878 28.284l-8.83-7.803"/></symbol><symbol id="icon-bathroom" viewBox="0 0 32 32"><path d="M8.14 0a4.723 4.723 0 0 0-4.716 4.716v12.182h1.572V4.716A3.12 3.12 0 0 1 8.14 1.572c1.481 0 2.701.995 3.046 2.358h1.597C12.405 1.706 10.47 0 8.141 0zm3.93 4.716A3.137 3.137 0 0 0 8.926 7.86h6.288a3.137 3.137 0 0 0-3.144-3.144zM9.712 9.432a.786.786 0 0 0-.786.786v.786a.786.786 0 0 0 1.572 0v-.786a.786.786 0 0 0-.786-.786zm4.716 0a.786.786 0 0 0-.786.786v.786a.786.786 0 0 0 1.572 0v-.786a.786.786 0 0 0-.786-.786zm-2.358 2.75a.786.786 0 0 0-.786.786v.786a.786.786 0 0 0 1.572 0v-.786a.786.786 0 0 0-.786-.786zM1.067 17.684a9.804 9.804 0 0 0 9.825 9.825H21.11a9.804 9.804 0 0 0 9.825-9.825H1.068zm7.958 10.611c.305 1.357 1.367 2.358 2.653 2.358h8.646c1.285 0 2.348-1 2.653-2.358H9.026z"/></symbol><symbol id="icon-dinnings" viewBox="0 0 32 32"><path d="m10.49 11.769 2.762 4.285 1.936-2.222-2.889-3.396c1.238-1.809.921-4.793-.921-7.237C9.219.31 5.76-.801 3.665.755s-2.032 5.174.127 8.063c1.873 2.476 4.634 3.619 6.698 2.952zM18.713 17.99l-2.095 3.27 5.079 7.84c.73 1.143 2.285 1.428 3.397.603l.19-.159a2.374 2.374 0 0 0 .381-3.428l-6.952-8.126z"/><path d="M29.698 3.421a.687.687 0 0 0-1.079.032S25 8.087 23.985 9.389a.491.491 0 0 1-.635.095c-.19-.159-.254-.413-.095-.635l4.349-6.126a.715.715 0 0 0-.032-.889.687.687 0 0 0-1.079.032S22.874 6.5 21.859 7.802a.491.491 0 0 1-.635.095c-.19-.159-.254-.413-.095-.635.984-1.365 4.381-6.158 4.381-6.158a.703.703 0 0 0-.286-1.048c-.286-.127-.635-.032-.857.222l-4.888 6.285-.635.825c-.635.857-.921 1.873-.794 2.762l.286 1.841L6.179 26.085a2.374 2.374 0 0 0 .381 3.428l.19.159c1.079.825 2.635.54 3.396-.603L20.177 13.42l1.873-.254c.889-.127 1.778-.698 2.444-1.555l.635-.825 4.603-6.476a.715.715 0 0 0-.032-.889z"/></symbol><symbol id="icon-bedroom" viewBox="0 0 32 32"><path d="M28.383 13.399H2.376A2.379 2.379 0 0 0 0 15.775v6.349h30.76v-6.349a2.379 2.379 0 0 0-2.376-2.376zM16.281 7.818h7.621v3.779h-7.621V7.818z"/><path d="M5.055 6.016h20.65v5.581h2.251V3.764H2.804v7.833h2.251V6.016z"/><path d="M6.857 7.818h7.622v3.779H6.857V7.818zM.961 23.927h28.836v2.774H.961v-2.774z"/></symbol><symbol id="icon-condition" viewBox="0 0 32 32"><path fill="#fe753f" style="fill:var(--color2,#fe753f)" opacity=".1" d="M3.478 0h25.043a3.478 3.478 0 0 1 3.478 3.478v25.043a3.478 3.478 0 0 1-3.478 3.478H3.478A3.478 3.478 0 0 1 0 28.521V3.478A3.478 3.478 0 0 1 3.478 0z"/><path fill="#fe753f" style="fill:var(--color2,#fe753f)" d="M20.634 15.607h-9.275a.629.629 0 0 0-.628.628v.692h10.515v-.692a.606.606 0 0 0-.612-.628z"/><path fill="#fe753f" style="fill:var(--color2,#fe753f)" d="M22.776 11.13H9.217a.866.866 0 0 0-.87.87v4.074c0 .483.386.87.87.87h.789v-.692a1.35 1.35 0 0 1 1.353-1.353h9.275a1.35 1.35 0 0 1 1.353 1.353v.692h.789c.483 0 .87-.387.87-.87v-4.09a.863.863 0 0 0-.87-.854zm-3.414 2.094h-.886c-.209 0-.37-.161-.37-.37s.161-.37.37-.37h.886c.209 0 .37.161.37.37-.016.193-.177.37-.37.37zm2.255 0h-.886c-.209 0-.37-.161-.37-.37s.161-.37.37-.37h.886c.209 0 .37.161.37.37 0 .193-.161.37-.37.37zM17.462 18.731l.161-.274c.113-.177.048-.419-.129-.531s-.419-.048-.531.129l-.161.274a1.453 1.453 0 0 0 .113 1.675.677.677 0 0 1 .097.692l-.145.322c-.081.193.016.419.209.515a.473.473 0 0 0 .145.032c.145 0 .29-.097.354-.242l.145-.322a1.452 1.452 0 0 0-.209-1.481.705.705 0 0 1-.048-.789zM15.031 18.731l.161-.274c.113-.177.048-.419-.129-.531s-.419-.048-.531.129l-.161.274a1.453 1.453 0 0 0 .113 1.675.677.677 0 0 1 .097.692l-.145.322c-.081.193.016.419.209.515a.473.473 0 0 0 .145.032c.145 0 .29-.097.354-.242l.145-.322a1.452 1.452 0 0 0-.209-1.481.705.705 0 0 1-.048-.789zM19.894 18.731l.161-.274c.113-.177.048-.419-.129-.531s-.419-.048-.531.129l-.161.274a1.453 1.453 0 0 0 .113 1.675.677.677 0 0 1 .097.692l-.145.322c-.081.193.016.419.209.515a.473.473 0 0 0 .145.032c.145 0 .29-.097.354-.242l.145-.322a1.452 1.452 0 0 0-.209-1.481.705.705 0 0 1-.048-.789zM12.599 18.731l.161-.274c.113-.177.048-.419-.129-.531s-.419-.048-.531.129l-.161.274a1.453 1.453 0 0 0 .113 1.675.677.677 0 0 1 .097.692l-.145.322c-.081.193.016.419.209.515a.473.473 0 0 0 .145.032c.145 0 .29-.097.354-.242l.145-.322a1.452 1.452 0 0 0-.209-1.481.705.705 0 0 1-.048-.789z"/></symbol><symbol id="icon-plant" viewBox="0 0 32 32"><path fill="#fe753f" style="fill:var(--color2,#fe753f)" opacity=".1" d="M3.478 0h25.043a3.478 3.478 0 0 1 3.478 3.478v25.043a3.478 3.478 0 0 1-3.478 3.478H3.478A3.478 3.478 0 0 1 0 28.521V3.478A3.478 3.478 0 0 1 3.478 0z"/><path fill="#fe753f" style="fill:var(--color2,#fe753f)" d="M20.406 21.797a.232.232 0 0 1 0 .464h-.696a.232.232 0 0 1 0-.464h.696zm.464-1.623h.464a.232.232 0 0 1 0 .464h-.464a.232.232 0 0 1 0-.464zm-2.087.696c0-.128.104-.232.232-.232h.464a.232.232 0 0 1 0 .464h-.464a.232.232 0 0 1-.232-.232zm-.464-.696h-.464a.232.232 0 0 1 0-.464h.464a.232.232 0 0 1 0 .464zm-.928 2.087h-.464a.232.232 0 0 1 0-.464h.464a.232.232 0 0 1 0 .464zm-1.159-1.623c0-.128.104-.232.232-.232h.464a.232.232 0 0 1 0 .464h-.464a.232.232 0 0 1-.232-.232zm-.928-.696h-.696a.232.232 0 0 1 0-.464h.696a.232.232 0 0 1 0 .464zm0 1.391h-.464a.232.232 0 0 1 0-.464h.464a.232.232 0 0 1 0 .464zm-1.159.928h-.696a.232.232 0 0 1 0-.464h.696a.232.232 0 0 1 0 .464zm-1.623-1.391c0-.128.104-.232.232-.232h.464a.232.232 0 0 1 0 .464h-.464a.232.232 0 0 1-.232-.232zm-.464-.696h-.464a.232.232 0 0 1 0-.464h.464a.232.232 0 0 1 0 .464zm-.232 1.855h-.464a.232.232 0 0 1 0-.464h.464a.232.232 0 0 1 0 .464zm-1.159-.928h-.464a.232.232 0 0 1 0-.464h.464a.232.232 0 0 1 0 .464zm9.86-9.281a2.551 2.551 0 0 0 2.429-2.545v-.232h-.232a2.553 2.553 0 0 0-2.547 2.469c-.238.314-.401.74-.529 1.143a11.123 11.123 0 0 0-.419-1.685c.148-.541.45-1.11.642-1.298a.232.232 0 0 0-.325-.331c-.195.191-.414.57-.584.982a3.286 3.286 0 0 0-.471-.738.231.231 0 1 0-.347.307c.29.328.524.828.711 1.43-.212-.175-.451-.335-.699-.413a.231.231 0 1 0-.14.442c.376.119.797.551 1.023.783l.037.037c.128.595.221 1.247.285 1.91a8.807 8.807 0 0 0-.33-.268l-.018-.014a2.087 2.087 0 0 0-1.994-2.051l-.232-.01-.01.232a2.086 2.086 0 0 0 1.915 2.167l.053.042c.258.201.572.449.677.675.054.873.06 1.734.028 2.482a8.541 8.541 0 0 0-.461-.378 2.53 2.53 0 0 0-1.115-1.502 2.533 2.533 0 0 0-1.927-.315l-.226.053.053.226c.156.664.56 1.227 1.139 1.586.408.254.87.384 1.339.384.157 0 .316-.019.473-.049.255.196.486.396.689.596-.029.381-.07.715-.119.987a2.097 2.097 0 0 0-.745-.141c-.283 0-.538.044-.771.133-.222-.629-.831-1.06-1.548-1.06-.495 0-.895.312-1.09.498a.275.275 0 0 1-.311.049.767.767 0 0 0-.407-.075c-.33.031-.641.14-.884.303l-.007-.012c.119-.728.18-1.736.16-2.827.106-.214.408-.45.657-.642l.085-.066a2.088 2.088 0 0 0 1.916-2.167l-.01-.232-.232.01a2.07 2.07 0 0 0-1.448.674c-.349.38-.539.865-.546 1.377l-.048.038c-.131.102-.269.209-.396.323a20.675 20.675 0 0 0-.113-1.4c.062-.154.119-.348.183-.571.126-.439.282-.974.526-1.315a2.551 2.551 0 0 0 2.429-2.545v-.232h-.232a2.553 2.553 0 0 0-2.547 2.469c-.235.311-.392.73-.515 1.129a10.702 10.702 0 0 0-.429-1.679c.148-.544.443-1.099.638-1.289a.232.232 0 0 0-.325-.331c-.194.19-.413.568-.581.978a3.33 3.33 0 0 0-.474-.734.231.231 0 1 0-.347.307c.279.315.523.804.724 1.436-.217-.177-.463-.341-.712-.42a.232.232 0 1 0-.14.442c.386.122.82.563 1.053.8l.025.025c.121.548.218 1.167.287 1.849l.007.073a7.652 7.652 0 0 0-.327-.262l-.048-.038a2.089 2.089 0 0 0-1.994-2.051l-.232-.01-.01.232a2.087 2.087 0 0 0 1.916 2.167l.085.066c.26.201.579.449.67.671.017.292.029.585.035.876-.001.019-.002.037.001.055.016.842-.015 1.655-.09 2.317-.228-.177-.507-.267-.843-.267-.881 0-1.517.567-1.611 1.404a1.858 1.858 0 0 0-1.635 1.842v1.623c0 .128.104.232.232.232h13.449a.232.232 0 0 0 .232-.232v-1.623a1.857 1.857 0 0 0-2.725-1.638.133.133 0 0 1-.158-.021 2.049 2.049 0 0 0-.349-.296c.237-1.126.312-3.359.075-5.44.061-.15.119-.341.184-.559.132-.443.295-.983.543-1.328z"/></symbol><symbol id="icon-security" viewBox="0 0 32 32"><path fill="#fe753f" style="fill:var(--color2,#fe753f)" opacity=".1" d="M3.478 0h25.043a3.478 3.478 0 0 1 3.478 3.478v25.043a3.478 3.478 0 0 1-3.478 3.478H3.478A3.478 3.478 0 0 1 0 28.521V3.478A3.478 3.478 0 0 1 3.478 0z"/><path fill="#fe753f" style="fill:var(--color2,#fe753f)" d="M16.348 13.152c-1.631 0-2.957 1.327-2.957 2.957s1.327 2.957 2.957 2.957c1.631 0 2.957-1.327 2.957-2.957s-1.327-2.957-2.957-2.957zm1.756 2.4-2.119 2.119a.454.454 0 0 1-.644 0l-.81-.81a.455.455 0 1 1 .644-.644l.488.488 1.797-1.797a.455.455 0 1 1 .644.644z"/><path fill="#fe753f" style="fill:var(--color2,#fe753f)" d="M22.941 12.559v-.012a16.28 16.28 0 0 1-.014-.482 1.646 1.646 0 0 0-1.549-1.612c-1.785-.1-3.165-.681-4.345-1.831l-.01-.01a.993.993 0 0 0-1.35 0l-.01.01c-1.18 1.15-2.56 1.732-4.345 1.831a1.646 1.646 0 0 0-1.549 1.612c-.003.174-.007.332-.014.482l-.001.028c-.035 1.82-.078 4.085.68 6.14a7.822 7.822 0 0 0 1.875 2.921c.943.92 2.177 1.65 3.67 2.171a1.109 1.109 0 0 0 .737 0c1.491-.521 2.724-1.252 3.666-2.172a7.83 7.83 0 0 0 1.875-2.922c.761-2.062.718-4.331.683-6.154zm-6.593 7.418c-2.133 0-3.868-1.735-3.868-3.868s1.735-3.868 3.868-3.868 3.868 1.735 3.868 3.868-1.735 3.868-3.868 3.868z"/></symbol><symbol id="icon-car" viewBox="0 0 32 32"><path fill="#fe753f" style="fill:var(--color2,#fe753f)" opacity=".1" d="M3.478 0h25.043a3.478 3.478 0 0 1 3.478 3.478v25.043a3.478 3.478 0 0 1-3.478 3.478H3.478A3.478 3.478 0 0 1 0 28.521V3.478A3.478 3.478 0 0 1 3.478 0z"/><path fill="#fe753f" style="fill:var(--color2,#fe753f)" d="m9.056 16.445.538-1.219h-.51c-.567-.283-.737-.652-.737-1.247l1.786.028 1.162-2.636c.51-.623.992-.964 1.389-.935 2.239.028 4.421.028 6.632 0 .397-.028.879.312 1.389.935l1.162 2.636 1.786-.028c0 .595-.17.964-.737 1.247h-.51l.538 1.219v5.073c0 .34-.283.623-.623.623h-2.126a.628.628 0 0 1-.623-.623v-1.445H12.43v1.445c0 .34-.283.623-.623.623H9.681a.628.628 0 0 1-.623-.623v-5.073zm3.77-4.932c-.198.028-.397.198-.623.454-.397.879-.822 1.729-1.219 2.607h10.061c-.425-.879-.85-1.729-1.247-2.607-.227-.255-.425-.425-.623-.454h-6.349zm1.474 5.952c-.283 0-.482.227-.482.51s.198.51.482.51h3.401c.283 0 .51-.227.51-.51s-.227-.51-.51-.51H14.3zm6.631-.878c-.538 0-.992.425-.992.992s.453.992.992.992c.567 0 1.02-.425 1.02-.992s-.453-.992-1.02-.992zm-9.862 0c.539 0 .992.425.992.992s-.453.992-.992.992c-.567 0-1.02-.425-1.02-.992s.454-.992 1.02-.992z"/></symbol><symbol id="icon-coach" viewBox="0 0 32 32"><path fill="#fe753f" style="fill:var(--color2,#fe753f)" opacity=".1" d="M3.478 0h25.043a3.478 3.478 0 0 1 3.478 3.478v25.043a3.478 3.478 0 0 1-3.478 3.478H3.478A3.478 3.478 0 0 1 0 28.521V3.478A3.478 3.478 0 0 1 3.478 0z"/><path fill="#fe753f" style="fill:var(--color2,#fe753f)" d="M11.511 14.833v1.095h3.98v-4.797h-4.71c-.574 0-1.043.469-1.043 1.043v1.286h.382a1.37 1.37 0 0 1 1.391 1.373zM20.306 14.833c0-.765.626-1.373 1.373-1.373h.382v-1.286c0-.574-.469-1.043-1.043-1.043h-4.693v4.797h3.98v-1.095z"/><path fill="#fe753f" style="fill:var(--color2,#fe753f)" d="M22.791 14.277h-1.112a.549.549 0 0 0-.556.556v1.756c0 .104-.07.174-.174.174H10.868c-.104 0-.174-.07-.174-.174v-1.756a.549.549 0 0 0-.556-.556H9.026c-.747 0-1.373.608-1.373 1.373 0 .747.608 1.373 1.373 1.373v1.391c0 .556.434 1.008.973 1.026v.556c0 .226.191.417.417.417h.956a.423.423 0 0 0 .417-.417v-.556h8.274v.556c0 .226.191.417.417.417h.956a.423.423 0 0 0 .417-.417v-.574c.539-.035.973-.469.973-1.026v-1.391c.747 0 1.373-.608 1.373-1.373a1.415 1.415 0 0 0-1.408-1.356z"/></symbol><symbol id="icon-pool" viewBox="0 0 32 32"><path fill="#fe753f" style="fill:var(--color2,#fe753f)" opacity=".1" d="M3.478 0h25.043a3.478 3.478 0 0 1 3.478 3.478v25.043a3.478 3.478 0 0 1-3.478 3.478H3.478A3.478 3.478 0 0 1 0 28.521V3.478A3.478 3.478 0 0 1 3.478 0z"/><path fill="#fe753f" style="fill:var(--color2,#fe753f)" d="M20.524 15.949a1.842 1.842 0 1 0 .428-3.658 1.842 1.842 0 0 0-.428 3.658zM12.502 14.451l2.74-.547.589.947-2.134 2.03c.33.083.646.207.94.369.141.078.273.168.401.254.206.14.4.275.592.327.152.042.351.044.364.045.271-.002.509-.078.752-.236.633-.413 1.41-.84 2.373-.882a4.504 4.504 0 0 1 1.114.084c-.198-.317-3.73-4.597-3.73-4.597l-.093-.111a.866.866 0 0 0-.961-.255l-3.326 1.22a.704.704 0 0 0 .381 1.352z"/><path fill="#fe753f" style="fill:var(--color2,#fe753f)" d="M24.612 18.707c-.453.203-.791.286-1.167.286-.148 0-.301-.013-.468-.041-.556-.099-.952-.42-1.335-.73-.236-.191-.458-.371-.716-.504-.466-.242-1.026-.369-1.621-.369-.062 0-.124.001-.186.004-.813.036-1.473.397-2.064.783a2.114 2.114 0 0 1-1.132.335c-.113 0-.342-.025-.491-.068-.286-.082-.53-.249-.767-.409a4.563 4.563 0 0 0-.353-.225 3.444 3.444 0 0 0-1.66-.419h-.012c-.824.003-1.57.256-2.156.731-.816.662-1.354.848-1.508.875 0 0-.129.034-.405.034-.53 0-.972-.174-1.417-.367a2.752 2.752 0 0 0-.894-.236c.056.032.109.066.161.101.226.157.411.348.591.533.096.099.187.192.283.281.377.347 1.156.757 2.052.757.455 0 .895-.099 1.307-.294.122-.057.24-.126.365-.198.208-.12.423-.241.662-.321.302-.102.77-.068.77-.068.485.031.849.26 1.111.457.8.598 1.554.88 2.374.888h.042c.564 0 1.081-.109 1.535-.323.211-.1.413-.247.626-.403.401-.293.815-.595 1.348-.616l.097-.002c.292 0 .732.051 1.168.293.525.292 1.161.59 1.894.59.107 0 .215-.006.323-.018.675-.076 1.246-.325 1.696-.74.097-.089.187-.183.284-.282.205-.211.417-.43.685-.596a.75.75 0 0 1 .061-.036c-.324.029-.667.13-1.084.317z"/></symbol><symbol id="icon-house" viewBox="0 0 32 32"><path fill="#fe753f" style="fill:var(--color2,#fe753f)" opacity=".1" d="M9.482 31.966h2.37a.546.546 0 0 0 .551-.551v-5.391a3.647 3.647 0 0 1 6.229-2.58 3.666 3.666 0 0 1 1.069 2.58v5.391c0 .309.243.551.551.551h2.37c3.241 0 5.887-2.646 5.887-5.887V11.318a.559.559 0 0 0-.176-.408L16.427.14a.571.571 0 0 0-.75 0L3.771 10.91a.559.559 0 0 0-.176.408v14.761c0 3.241 2.646 5.887 5.887 5.887z"/><path fill="#fe753f" style="fill:var(--color2,#fe753f)" opacity=".1" d="M10.555 17.615h12.36V32h-12.36V17.615z"/></symbol><symbol id="icon-quote" viewBox="0 0 32 32"><path fill="#2e6eff" style="fill:var(--color3,#2e6eff)" opacity=".1" d="M19.144 24.505c-.8.336-1.136 1.291-.774 2.065l1.265 2.659a1.544 1.544 0 0 0 2.014.748c2.194-.929 4.079-2.143 5.576-3.614 1.833-1.729 3.072-3.717 3.743-5.911.671-2.22 1.033-5.24 1.033-9.087V3.44c0-.852-.697-1.549-1.549-1.549H20.307c-.852 0-1.549.697-1.549 1.549v10.145c0 .852.697 1.549 1.549 1.549h4.853c-.052 2.608-.671 4.698-1.807 6.273-.929 1.264-2.323 2.297-4.208 3.098zM.919 24.505c-.8.336-1.136 1.291-.774 2.065l1.265 2.633a1.544 1.544 0 0 0 2.014.749c2.168-.929 4.027-2.143 5.55-3.588 1.833-1.755 3.098-3.743 3.769-5.937.671-2.168 1.006-5.189 1.006-9.061V3.441c0-.852-.697-1.549-1.549-1.549H2.055c-.852 0-1.549.697-1.549 1.549v10.145c0 .852.697 1.549 1.549 1.549h4.879c-.052 2.608-.671 4.698-1.807 6.273-.929 1.265-2.323 2.297-4.208 3.098z"/></symbol><symbol id="icon-arrow" viewBox="0 0 32 32"><path stroke-linejoin="round" stroke-linecap="round" stroke-width="4" d="M2.667 9.333 16 22.666 29.333 9.333"/></symbol><symbol id="icon-heart" viewBox="0 0 37 32"><path d="M18.286 32a1.07 1.07 0 0 1-.705-.264 457.46 457.46 0 0 0-4.436-3.799C5.273 21.259.001 16.846.001 10.418c0-5.94 4.217-10.419 9.714-10.419 4.333 0 7.114 3.014 8.571 5.727 1.457-2.714 4.239-5.727 8.571-5.727 5.497 0 9.714 4.479 9.714 10.419 0 6.428-5.273 10.841-13.144 17.519a445.785 445.785 0 0 0-4.436 3.799 1.07 1.07 0 0 1-.705.264z"/></symbol><symbol id="icon-facebook" viewBox="0 0 32 32"><path d="M21.329 5.313h2.921V.225C23.746.156 22.013 0 19.994 0c-4.212 0-7.097 2.649-7.097 7.519V12H8.249v5.688h4.648V32h5.699V17.689h4.46l.708-5.688h-5.169V8.082c.001-1.644.444-2.769 2.735-2.769z"/></symbol><symbol id="icon-instagram" viewBox="0 0 32 32"><path d="M31.969 9.408c-.075-1.7-.35-2.869-.744-3.882a7.806 7.806 0 0 0-1.851-2.838A7.867 7.867 0 0 0 26.542.844C25.523.45 24.36.175 22.66.1 20.947.019 20.403 0 16.059 0s-4.888.019-6.595.094c-1.7.075-2.869.35-3.882.744a7.803 7.803 0 0 0-2.838 1.85A7.867 7.867 0 0 0 .9 5.52C.506 6.539.231 7.702.156 9.402c-.081 1.713-.1 2.257-.1 6.601s.019 4.888.094 6.595c.075 1.7.35 2.869.744 3.882a7.895 7.895 0 0 0 1.85 2.838 7.867 7.867 0 0 0 2.832 1.844c1.019.394 2.182.669 3.882.744 1.706.075 2.25.094 6.595.094s4.888-.019 6.595-.094c1.7-.075 2.869-.35 3.882-.744a8.184 8.184 0 0 0 4.682-4.682c.394-1.019.669-2.182.744-3.882.075-1.707.094-2.251.094-6.595s-.006-4.888-.081-6.595zm-2.882 13.065c-.069 1.563-.331 2.407-.55 2.969a5.31 5.31 0 0 1-3.038 3.038c-.563.219-1.413.481-2.969.55-1.688.075-2.194.094-6.464.094s-4.782-.019-6.464-.094c-1.563-.069-2.407-.331-2.969-.55a4.926 4.926 0 0 1-1.838-1.194 4.974 4.974 0 0 1-1.194-1.838c-.219-.563-.481-1.413-.55-2.969-.075-1.688-.094-2.194-.094-6.464s.019-4.782.094-6.464c.069-1.563.331-2.407.55-2.969a4.868 4.868 0 0 1 1.2-1.838A4.974 4.974 0 0 1 6.639 3.55c.563-.219 1.413-.481 2.969-.55 1.688-.075 2.194-.094 6.464-.094 4.276 0 4.782.019 6.464.094 1.563.069 2.407.331 2.969.55a4.914 4.914 0 0 1 1.838 1.194 4.974 4.974 0 0 1 1.194 1.838c.219.563.481 1.413.55 2.969.075 1.688.094 2.194.094 6.464s-.019 4.77-.094 6.458z"/><path d="M16.059 7.783c-4.538 0-8.22 3.682-8.22 8.22s3.682 8.22 8.22 8.22c4.539 0 8.22-3.682 8.22-8.22s-3.682-8.22-8.22-8.22zm0 13.552a5.333 5.333 0 0 1 0-10.664 5.333 5.333 0 0 1 0 10.664zM26.524 7.458a1.919 1.919 0 1 1-3.838 0 1.919 1.919 0 0 1 3.838 0z"/></symbol><symbol id="icon-linkedin" viewBox="0 0 32 32"><path d="M31.992 32v-.001H32V20.263c0-5.741-1.236-10.164-7.948-10.164-3.227 0-5.392 1.771-6.276 3.449h-.093v-2.913h-6.364v21.364h6.627V21.42c0-2.785.528-5.479 3.977-5.479 3.399 0 3.449 3.179 3.449 5.657v10.401h6.62zM.528 10.636h6.635V32H.528V10.636zM3.843 0C1.722 0 0 1.721 0 3.843s1.721 3.879 3.843 3.879c2.121 0 3.843-1.757 3.843-3.879A3.846 3.846 0 0 0 3.843 0z"/></symbol><symbol id="icon-twitter" viewBox="0 0 32 32"><path d="M32 6.078c-1.19.522-2.458.868-3.78 1.036a6.523 6.523 0 0 0 2.886-3.626 13.11 13.11 0 0 1-4.16 1.588A6.574 6.574 0 0 0 22.154 3c-3.632 0-6.556 2.948-6.556 6.562 0 .52.044 1.02.152 1.496-5.454-.266-10.28-2.88-13.522-6.862a6.605 6.605 0 0 0-.898 3.316 6.57 6.57 0 0 0 2.914 5.452 6.479 6.479 0 0 1-2.964-.808v.072c0 3.188 2.274 5.836 5.256 6.446a6.548 6.548 0 0 1-1.72.216 5.8 5.8 0 0 1-1.242-.112c.85 2.598 3.262 4.508 6.13 4.57a13.182 13.182 0 0 1-8.134 2.798c-.538 0-1.054-.024-1.57-.09A18.469 18.469 0 0 0 10.064 29c12.072 0 18.672-10 18.672-18.668 0-.29-.01-.57-.024-.848A13.087 13.087 0 0 0 32 6.078z"/></symbol><symbol id="icon-instagram1" viewBox="0 0 32 32"><path d="M16 2.881c4.275 0 4.781.019 6.462.094 1.563.069 2.406.331 2.969.55a4.952 4.952 0 0 1 1.837 1.194 5.015 5.015 0 0 1 1.2 1.838c.219.563.481 1.412.55 2.969.075 1.688.094 2.194.094 6.463s-.019 4.781-.094 6.463c-.069 1.563-.331 2.406-.55 2.969a4.94 4.94 0 0 1-1.194 1.837 5.02 5.02 0 0 1-1.837 1.2c-.563.219-1.413.481-2.969.55-1.688.075-2.194.094-6.463.094s-4.781-.019-6.463-.094c-1.563-.069-2.406-.331-2.969-.55a4.952 4.952 0 0 1-1.838-1.194 5.02 5.02 0 0 1-1.2-1.837c-.219-.563-.481-1.413-.55-2.969-.075-1.688-.094-2.194-.094-6.463s.019-4.781.094-6.463c.069-1.563.331-2.406.55-2.969a4.964 4.964 0 0 1 1.194-1.838 5.015 5.015 0 0 1 1.838-1.2c.563-.219 1.412-.481 2.969-.55 1.681-.075 2.188-.094 6.463-.094zM16 0c-4.344 0-4.887.019-6.594.094-1.7.075-2.869.35-3.881.744-1.056.412-1.95.956-2.837 1.85a7.833 7.833 0 0 0-1.85 2.831C.444 6.538.169 7.7.094 9.4.019 11.113 0 11.656 0 16s.019 4.887.094 6.594c.075 1.7.35 2.869.744 3.881.413 1.056.956 1.95 1.85 2.837a7.82 7.82 0 0 0 2.831 1.844c1.019.394 2.181.669 3.881.744 1.706.075 2.25.094 6.594.094s4.888-.019 6.594-.094c1.7-.075 2.869-.35 3.881-.744 1.05-.406 1.944-.956 2.831-1.844s1.438-1.781 1.844-2.831c.394-1.019.669-2.181.744-3.881.075-1.706.094-2.25.094-6.594s-.019-4.887-.094-6.594c-.075-1.7-.35-2.869-.744-3.881a7.506 7.506 0 0 0-1.831-2.844A7.82 7.82 0 0 0 26.482.843C25.463.449 24.301.174 22.601.099c-1.712-.081-2.256-.1-6.6-.1z"/><path d="M16 7.781c-4.537 0-8.219 3.681-8.219 8.219s3.681 8.219 8.219 8.219 8.219-3.681 8.219-8.219A8.221 8.221 0 0 0 16 7.781zm0 13.55a5.331 5.331 0 1 1 0-10.663 5.331 5.331 0 0 1 0 10.663zM26.462 7.456a1.919 1.919 0 1 1-3.838 0 1.919 1.919 0 0 1 3.838 0z"/></symbol></defs></svg>