<svg aria-hidden="true" style="position: absolute; width: 0; height: 0; overflow: hidden;" version="1.1" xmlns="http://www.w3.org/2000/svg" xmlns:xlink="http://www.w3.org/1999/xlink">
<defs>
<symbol id="icon-location" viewBox="0 0 32 32">
<path d="M26.597 6.742c-0.854-1.892-2.206-3.515-3.913-4.697s-3.702-1.877-5.773-2.012c-0.606-0.044-1.215-0.044-1.822 0-2.071 0.135-4.066 0.83-5.773 2.012s-3.059 2.805-3.913 4.697c-0.917 1.971-1.291 4.151-1.082 6.315s0.993 4.232 2.27 5.991l8.508 11.595c0.104 0.141 0.239 0.256 0.395 0.335s0.329 0.12 0.504 0.12c0.175 0 0.348-0.041 0.504-0.12s0.292-0.194 0.395-0.335l8.508-11.595c1.277-1.759 2.061-3.828 2.27-5.991s-0.164-4.344-1.082-6.315zM16.001 15.256c-0.711 0-1.405-0.211-1.996-0.606s-1.052-0.956-1.323-1.613c-0.272-0.657-0.343-1.379-0.204-2.076s0.481-1.337 0.983-1.84c0.503-0.503 1.143-0.845 1.84-0.983s1.42-0.068 2.076 0.204c0.657 0.272 1.218 0.733 1.613 1.323s0.606 1.286 0.606 1.996c0 0.472-0.092 0.939-0.273 1.375s-0.445 0.832-0.779 1.166c-0.334 0.334-0.73 0.598-1.166 0.779s-0.904 0.273-1.375 0.273z"></path>
</symbol>
<symbol id="icon-search" viewBox="0 0 32 32">
<path fill="none" stroke="#fff" style="stroke: var(--color1, #fff)" stroke-linejoin="round" stroke-linecap="round" stroke-miterlimit="4" stroke-width="3.2" d="M13.292 22.94c5.573 0 10.092-4.658 10.092-10.403s-4.518-10.403-10.092-10.403c-5.573 0-10.092 4.658-10.092 10.403s4.518 10.403 10.092 10.403z"></path>
<path fill="none" stroke="#fff" style="stroke: var(--color1, #fff)" stroke-linejoin="round" stroke-linecap="round" stroke-miterlimit="4" stroke-width="3.2" d="M28.878 28.284l-8.83-7.803"></path>
</symbol>
<symbol id="icon-bathroom" viewBox="0 0 32 32">
<path d="M8.14 0c-2.599 0-4.716 2.117-4.716 4.716v12.182h1.572v-12.182c0-1.755 1.389-3.144 3.144-3.144 1.481 0 2.701 0.995 3.046 2.358h1.597c-0.378-2.224-2.313-3.93-4.642-3.93zM12.070 4.716c-1.742 0-3.144 1.402-3.144 3.144h6.288c0-1.742-1.402-3.144-3.144-3.144zM9.712 9.432c-0.434 0-0.786 0.352-0.786 0.786v0.786c0 0.434 0.352 0.786 0.786 0.786s0.786-0.352 0.786-0.786v-0.786c0-0.434-0.352-0.786-0.786-0.786zM14.428 9.432c-0.434 0-0.786 0.352-0.786 0.786v0.786c0 0.434 0.352 0.786 0.786 0.786s0.786-0.352 0.786-0.786v-0.786c0-0.434-0.352-0.786-0.786-0.786zM12.070 12.182c-0.434 0-0.786 0.352-0.786 0.786v0.786c0 0.434 0.352 0.786 0.786 0.786s0.786-0.352 0.786-0.786v-0.786c0-0.434-0.352-0.786-0.786-0.786zM1.067 17.684c0 5.443 4.382 9.825 9.825 9.825h10.218c5.443 0 9.825-4.382 9.825-9.825h-29.867zM9.025 28.295c0.305 1.357 1.367 2.358 2.653 2.358h8.646c1.285 0 2.348-1 2.653-2.358h-13.951z"></path>
</symbol>
<symbol id="icon-dinnings" viewBox="0 0 32 32">
<path d="M10.49 11.769l2.762 4.285 1.936-2.222-2.889-3.396c1.238-1.809 0.921-4.793-0.921-7.237-2.159-2.889-5.618-4-7.713-2.444s-2.032 5.174 0.127 8.063c1.873 2.476 4.634 3.619 6.698 2.952z"></path>
<path d="M18.713 17.99l-2.095 3.27 5.079 7.84c0.73 1.143 2.285 1.428 3.397 0.603l0.19-0.159c1.079-0.825 1.27-2.381 0.381-3.428l-6.952-8.126z"></path>
<path d="M29.698 3.421c-0.286-0.349-0.825-0.317-1.079 0.032 0 0-3.619 4.634-4.634 5.936-0.159 0.19-0.444 0.222-0.635 0.095-0.19-0.159-0.254-0.413-0.095-0.635l4.349-6.126c0.191-0.254 0.191-0.635-0.032-0.889-0.286-0.349-0.825-0.317-1.079 0.032 0 0-3.619 4.634-4.634 5.936-0.159 0.19-0.444 0.222-0.635 0.095-0.19-0.159-0.254-0.413-0.095-0.635 0.984-1.365 4.381-6.158 4.381-6.158 0.254-0.349 0.127-0.857-0.286-1.048-0.286-0.127-0.635-0.032-0.857 0.222l-4.888 6.285-0.635 0.825c-0.635 0.857-0.921 1.873-0.794 2.762l0.286 1.841-12.157 14.094c-0.889 1.048-0.698 2.603 0.381 3.428l0.19 0.159c1.079 0.825 2.635 0.54 3.396-0.603l10.031-15.649 1.873-0.254c0.889-0.127 1.778-0.698 2.444-1.555l0.635-0.825 4.603-6.476c0.191-0.254 0.191-0.635-0.032-0.889z"></path>
</symbol>
<symbol id="icon-bedroom" viewBox="0 0 32 32">
<path d="M28.383 13.399h-26.007c-1.31 0-2.376 1.066-2.376 2.376v6.349h30.76v-6.349c0-1.31-1.066-2.376-2.376-2.376z"></path>
<path d="M16.281 7.818h7.621v3.779h-7.621v-3.779z"></path>
<path d="M5.055 6.016h20.65v5.581h2.251v-7.833h-25.152v7.833h2.251v-5.581z"></path>
<path d="M6.857 7.818h7.622v3.779h-7.622v-3.779z"></path>
<path d="M0.961 23.927h28.836v2.774h-28.836v-2.774z"></path>
</symbol>
<symbol id="icon-condition" viewBox="0 0 32 32">
<path fill="#fe753f" style="fill: var(--color2, #fe753f)" opacity="0.1" d="M3.478 0h25.043c1.921 0 3.478 1.557 3.478 3.478v25.043c0 1.921-1.557 3.478-3.478 3.478h-25.043c-1.921 0-3.478-1.557-3.478-3.478v-25.043c0-1.921 1.557-3.478 3.478-3.478z"></path>
<path fill="#fe753f" style="fill: var(--color2, #fe753f)" d="M20.634 15.607h-9.275c-0.338 0-0.628 0.274-0.628 0.628v0.692h10.515v-0.692c0.016-0.354-0.274-0.628-0.612-0.628z"></path>
<path fill="#fe753f" style="fill: var(--color2, #fe753f)" d="M22.776 11.13h-13.559c-0.483 0-0.87 0.386-0.87 0.87v4.074c0 0.483 0.386 0.87 0.87 0.87h0.789v-0.692c0-0.757 0.612-1.353 1.353-1.353h9.275c0.757 0 1.353 0.612 1.353 1.353v0.692h0.789c0.483 0 0.87-0.387 0.87-0.87v-4.090c0-0.467-0.386-0.854-0.87-0.854zM19.362 13.224h-0.886c-0.209 0-0.37-0.161-0.37-0.37s0.161-0.37 0.37-0.37h0.886c0.209 0 0.37 0.161 0.37 0.37-0.016 0.193-0.177 0.37-0.37 0.37zM21.617 13.224h-0.886c-0.209 0-0.37-0.161-0.37-0.37s0.161-0.37 0.37-0.37h0.886c0.209 0 0.37 0.161 0.37 0.37 0 0.193-0.161 0.37-0.37 0.37z"></path>
<path fill="#fe753f" style="fill: var(--color2, #fe753f)" d="M17.462 18.731l0.161-0.274c0.113-0.177 0.048-0.419-0.129-0.531s-0.419-0.048-0.531 0.129l-0.161 0.274c-0.322 0.531-0.274 1.208 0.113 1.675 0.161 0.193 0.193 0.467 0.097 0.692l-0.145 0.322c-0.081 0.193 0.016 0.419 0.209 0.515 0.048 0.016 0.097 0.032 0.145 0.032 0.145 0 0.29-0.097 0.354-0.242l0.145-0.322c0.209-0.499 0.129-1.063-0.209-1.481-0.177-0.225-0.193-0.531-0.048-0.789z"></path>
<path fill="#fe753f" style="fill: var(--color2, #fe753f)" d="M15.031 18.731l0.161-0.274c0.113-0.177 0.048-0.419-0.129-0.531s-0.419-0.048-0.531 0.129l-0.161 0.274c-0.322 0.531-0.274 1.208 0.113 1.675 0.161 0.193 0.193 0.467 0.097 0.692l-0.145 0.322c-0.081 0.193 0.016 0.419 0.209 0.515 0.048 0.016 0.097 0.032 0.145 0.032 0.145 0 0.29-0.097 0.354-0.242l0.145-0.322c0.209-0.499 0.129-1.063-0.209-1.481-0.177-0.225-0.193-0.531-0.048-0.789z"></path>
<path fill="#fe753f" style="fill: var(--color2, #fe753f)" d="M19.894 18.731l0.161-0.274c0.113-0.177 0.048-0.419-0.129-0.531s-0.419-0.048-0.531 0.129l-0.161 0.274c-0.322 0.531-0.274 1.208 0.113 1.675 0.161 0.193 0.193 0.467 0.097 0.692l-0.145 0.322c-0.081 0.193 0.016 0.419 0.209 0.515 0.048 0.016 0.097 0.032 0.145 0.032 0.145 0 0.29-0.097 0.354-0.242l0.145-0.322c0.209-0.499 0.129-1.063-0.209-1.481-0.177-0.225-0.193-0.531-0.048-0.789z"></path>
<path fill="#fe753f" style="fill: var(--color2, #fe753f)" d="M12.599 18.731l0.161-0.274c0.113-0.177 0.048-0.419-0.129-0.531s-0.419-0.048-0.531 0.129l-0.161 0.274c-0.322 0.531-0.274 1.208 0.113 1.675 0.161 0.193 0.193 0.467 0.097 0.692l-0.145 0.322c-0.081 0.193 0.016 0.419 0.209 0.515 0.048 0.016 0.097 0.032 0.145 0.032 0.145 0 0.29-0.097 0.354-0.242l0.145-0.322c0.209-0.499 0.129-1.063-0.209-1.481-0.177-0.225-0.193-0.531-0.048-0.789z"></path>
</symbol>
<symbol id="icon-plant" viewBox="0 0 32 32">
<path fill="#fe753f" style="fill: var(--color2, #fe753f)" opacity="0.1" d="M3.478 0h25.043c1.921 0 3.478 1.557 3.478 3.478v25.043c0 1.921-1.557 3.478-3.478 3.478h-25.043c-1.921 0-3.478-1.557-3.478-3.478v-25.043c0-1.921 1.557-3.478 3.478-3.478z"></path>
<path fill="#fe753f" style="fill: var(--color2, #fe753f)" d="M20.406 21.797c0.128 0 0.232 0.104 0.232 0.232s-0.104 0.232-0.232 0.232h-0.696c-0.128 0-0.232-0.104-0.232-0.232s0.104-0.232 0.232-0.232h0.696zM20.87 20.174h0.464c0.128 0 0.232 0.104 0.232 0.232s-0.104 0.232-0.232 0.232h-0.464c-0.128 0-0.232-0.104-0.232-0.232s0.104-0.232 0.232-0.232zM18.783 20.87c0-0.128 0.104-0.232 0.232-0.232h0.464c0.128 0 0.232 0.104 0.232 0.232s-0.104 0.232-0.232 0.232h-0.464c-0.128 0-0.232-0.104-0.232-0.232zM18.319 20.174h-0.464c-0.128 0-0.232-0.104-0.232-0.232s0.104-0.232 0.232-0.232h0.464c0.128 0 0.232 0.104 0.232 0.232s-0.104 0.232-0.232 0.232zM17.391 22.261h-0.464c-0.128 0-0.232-0.104-0.232-0.232s0.104-0.232 0.232-0.232h0.464c0.128 0 0.232 0.104 0.232 0.232s-0.104 0.232-0.232 0.232zM16.232 20.638c0-0.128 0.104-0.232 0.232-0.232h0.464c0.128 0 0.232 0.104 0.232 0.232s-0.104 0.232-0.232 0.232h-0.464c-0.128 0-0.232-0.104-0.232-0.232zM15.304 19.942h-0.696c-0.128 0-0.232-0.104-0.232-0.232s0.104-0.232 0.232-0.232h0.696c0.128 0 0.232 0.104 0.232 0.232s-0.104 0.232-0.232 0.232zM15.304 21.333h-0.464c-0.128 0-0.232-0.104-0.232-0.232s0.104-0.232 0.232-0.232h0.464c0.128 0 0.232 0.104 0.232 0.232s-0.104 0.232-0.232 0.232zM14.145 22.261h-0.696c-0.128 0-0.232-0.104-0.232-0.232s0.104-0.232 0.232-0.232h0.696c0.128 0 0.232 0.104 0.232 0.232s-0.104 0.232-0.232 0.232zM12.522 20.87c0-0.128 0.104-0.232 0.232-0.232h0.464c0.128 0 0.232 0.104 0.232 0.232s-0.104 0.232-0.232 0.232h-0.464c-0.128 0-0.232-0.104-0.232-0.232zM12.058 20.174h-0.464c-0.128 0-0.232-0.104-0.232-0.232s0.104-0.232 0.232-0.232h0.464c0.128 0 0.232 0.104 0.232 0.232s-0.104 0.232-0.232 0.232zM11.826 22.029h-0.464c-0.128 0-0.232-0.104-0.232-0.232s0.104-0.232 0.232-0.232h0.464c0.128 0 0.232 0.104 0.232 0.232s-0.104 0.232-0.232 0.232zM10.667 21.101h-0.464c-0.128 0-0.232-0.104-0.232-0.232s0.104-0.232 0.232-0.232h0.464c0.128 0 0.232 0.104 0.232 0.232s-0.104 0.232-0.232 0.232zM20.527 11.82c1.35-0.064 2.429-1.179 2.429-2.545v-0.232h-0.232c-1.379 0-2.503 1.101-2.547 2.469-0.238 0.314-0.401 0.74-0.529 1.143-0.107-0.608-0.245-1.182-0.419-1.685 0.148-0.541 0.45-1.11 0.642-1.298 0.092-0.090 0.093-0.237 0.003-0.328s-0.237-0.093-0.328-0.003c-0.195 0.191-0.414 0.57-0.584 0.982-0.14-0.288-0.296-0.54-0.471-0.738-0.084-0.096-0.231-0.105-0.327-0.020s-0.105 0.231-0.020 0.327c0.29 0.328 0.524 0.828 0.711 1.43-0.212-0.175-0.451-0.335-0.699-0.413-0.123-0.039-0.252 0.029-0.291 0.151s0.029 0.253 0.151 0.291c0.376 0.119 0.797 0.551 1.023 0.783l0.037 0.037c0.128 0.595 0.221 1.247 0.285 1.91-0.108-0.093-0.221-0.183-0.33-0.268l-0.018-0.014c-0.017-1.095-0.886-2.003-1.994-2.051l-0.232-0.010-0.010 0.232c-0.049 1.123 0.804 2.077 1.915 2.167l0.053 0.042c0.258 0.201 0.572 0.449 0.677 0.675 0.054 0.873 0.060 1.734 0.028 2.482-0.145-0.128-0.299-0.254-0.461-0.378-0.169-0.627-0.561-1.158-1.115-1.502-0.579-0.359-1.264-0.471-1.927-0.315l-0.226 0.053 0.053 0.226c0.156 0.664 0.56 1.227 1.139 1.586 0.408 0.254 0.87 0.384 1.339 0.384 0.157 0 0.316-0.019 0.473-0.049 0.255 0.196 0.486 0.396 0.689 0.596-0.029 0.381-0.070 0.715-0.119 0.987-0.237-0.090-0.488-0.141-0.745-0.141-0.283 0-0.538 0.044-0.771 0.133-0.222-0.629-0.831-1.060-1.548-1.060-0.495 0-0.895 0.312-1.090 0.498-0.084 0.080-0.209 0.1-0.311 0.049-0.125-0.062-0.265-0.087-0.407-0.075-0.33 0.031-0.641 0.14-0.884 0.303-0.002-0.004-0.005-0.008-0.007-0.012 0.119-0.728 0.18-1.736 0.16-2.827 0.106-0.214 0.408-0.45 0.657-0.642l0.085-0.066c1.111-0.090 1.964-1.045 1.916-2.167l-0.010-0.232-0.232 0.010c-0.557 0.024-1.072 0.263-1.448 0.674-0.349 0.38-0.539 0.865-0.546 1.377l-0.048 0.038c-0.131 0.102-0.269 0.209-0.396 0.323-0.022-0.464-0.059-0.935-0.113-1.4 0.062-0.154 0.119-0.348 0.183-0.571 0.126-0.439 0.282-0.974 0.526-1.315 1.35-0.064 2.429-1.179 2.429-2.545v-0.232h-0.232c-1.379 0-2.503 1.101-2.547 2.469-0.235 0.311-0.392 0.73-0.515 1.129-0.109-0.606-0.25-1.177-0.429-1.679 0.148-0.544 0.443-1.099 0.638-1.289 0.092-0.090 0.093-0.237 0.003-0.328s-0.237-0.093-0.328-0.003c-0.194 0.19-0.413 0.568-0.581 0.978-0.141-0.286-0.298-0.535-0.474-0.734-0.084-0.096-0.231-0.105-0.327-0.020s-0.105 0.231-0.020 0.327c0.279 0.315 0.523 0.804 0.724 1.436-0.217-0.177-0.463-0.341-0.712-0.42-0.122-0.039-0.252 0.029-0.291 0.151s0.029 0.253 0.151 0.291c0.386 0.122 0.82 0.563 1.053 0.8l0.025 0.025c0.121 0.548 0.218 1.167 0.287 1.849 0.003 0.024 0.004 0.049 0.007 0.073-0.107-0.092-0.219-0.179-0.327-0.262l-0.048-0.038c-0.018-1.095-0.887-2.003-1.994-2.051l-0.232-0.010-0.010 0.232c-0.049 1.123 0.805 2.077 1.916 2.167l0.085 0.066c0.26 0.201 0.579 0.449 0.67 0.671 0.017 0.292 0.029 0.585 0.035 0.876-0.001 0.019-0.002 0.037 0.001 0.055 0.016 0.842-0.015 1.655-0.090 2.317-0.228-0.177-0.507-0.267-0.843-0.267-0.881 0-1.517 0.567-1.611 1.404-0.908 0.108-1.618 0.877-1.633 1.811-0.001 0.010-0.002 0.021-0.002 0.031v1.623c0 0.128 0.104 0.232 0.232 0.232h13.449c0.128 0 0.232-0.104 0.232-0.232v-1.623c0-0.010-0.001-0.021-0.002-0.031-0.017-1.009-0.842-1.824-1.853-1.824-0.303 0-0.604 0.075-0.87 0.217-0.053 0.029-0.12 0.019-0.158-0.021-0.105-0.112-0.223-0.211-0.349-0.296 0.237-1.126 0.312-3.359 0.075-5.44 0.061-0.15 0.119-0.341 0.184-0.559 0.132-0.443 0.295-0.983 0.543-1.328z"></path>
</symbol>
<symbol id="icon-security" viewBox="0 0 32 32">
<path fill="#fe753f" style="fill: var(--color2, #fe753f)" opacity="0.1" d="M3.478 0h25.043c1.921 0 3.478 1.557 3.478 3.478v25.043c0 1.921-1.557 3.478-3.478 3.478h-25.043c-1.921 0-3.478-1.557-3.478-3.478v-25.043c0-1.921 1.557-3.478 3.478-3.478z"></path>
<path fill="#fe753f" style="fill: var(--color2, #fe753f)" d="M16.348 13.152c-1.631 0-2.957 1.327-2.957 2.957s1.327 2.957 2.957 2.957c1.631 0 2.957-1.327 2.957-2.957s-1.327-2.957-2.957-2.957zM18.104 15.552l-2.119 2.119c-0.089 0.089-0.206 0.133-0.322 0.133s-0.233-0.044-0.322-0.133l-0.81-0.81c-0.178-0.178-0.178-0.466 0-0.644s0.466-0.178 0.644 0l0.488 0.488 1.797-1.797c0.178-0.178 0.466-0.178 0.644 0s0.178 0.466 0 0.644z"></path>
<path fill="#fe753f" style="fill: var(--color2, #fe753f)" d="M22.941 12.559l-0-0.012c-0.007-0.149-0.011-0.307-0.014-0.482-0.013-0.856-0.693-1.564-1.549-1.612-1.785-0.1-3.165-0.681-4.345-1.831l-0.010-0.010c-0.385-0.353-0.965-0.353-1.35 0l-0.010 0.010c-1.18 1.15-2.56 1.732-4.345 1.831-0.856 0.048-1.536 0.756-1.549 1.612-0.003 0.174-0.007 0.332-0.014 0.482l-0.001 0.028c-0.035 1.82-0.078 4.085 0.68 6.14 0.417 1.13 1.047 2.113 1.875 2.921 0.943 0.92 2.177 1.65 3.67 2.171 0.049 0.017 0.099 0.031 0.15 0.041 0.073 0.014 0.145 0.022 0.218 0.022s0.146-0.007 0.218-0.022c0.051-0.010 0.102-0.024 0.151-0.041 1.491-0.521 2.724-1.252 3.666-2.172 0.827-0.808 1.458-1.791 1.875-2.922 0.761-2.062 0.718-4.331 0.683-6.154zM16.348 19.977c-2.133 0-3.868-1.735-3.868-3.868s1.735-3.868 3.868-3.868c2.133 0 3.868 1.735 3.868 3.868s-1.735 3.868-3.868 3.868z"></path>
</symbol>
<symbol id="icon-car" viewBox="0 0 32 32">
<path fill="#fe753f" style="fill: var(--color2, #fe753f)" opacity="0.1" d="M3.478 0h25.043c1.921 0 3.478 1.557 3.478 3.478v25.043c0 1.921-1.557 3.478-3.478 3.478h-25.043c-1.921 0-3.478-1.557-3.478-3.478v-25.043c0-1.921 1.557-3.478 3.478-3.478z"></path>
<path fill="#fe753f" style="fill: var(--color2, #fe753f)" d="M9.056 16.445l0.538-1.219h-0.51c-0.567-0.283-0.737-0.652-0.737-1.247l1.786 0.028 1.162-2.636c0.51-0.623 0.992-0.964 1.389-0.935 2.239 0.028 4.421 0.028 6.632 0 0.397-0.028 0.879 0.312 1.389 0.935l1.162 2.636 1.786-0.028c0 0.595-0.17 0.964-0.737 1.247h-0.51l0.538 1.219c0 1.7 0 3.373 0 5.073 0 0.34-0.283 0.623-0.623 0.623h-2.126c-0.34 0-0.623-0.283-0.623-0.623v-1.445h-7.142v1.445c0 0.34-0.283 0.623-0.623 0.623h-2.126c-0.34 0-0.623-0.283-0.623-0.623 0-1.701 0-3.373 0-5.073zM12.826 11.513c-0.198 0.028-0.397 0.198-0.623 0.454-0.397 0.879-0.822 1.729-1.219 2.607h10.061c-0.425-0.879-0.85-1.729-1.247-2.607-0.227-0.255-0.425-0.425-0.623-0.454h-6.349zM14.3 17.465c-0.283 0-0.482 0.227-0.482 0.51s0.198 0.51 0.482 0.51h3.401c0.283 0 0.51-0.227 0.51-0.51s-0.227-0.51-0.51-0.51h-3.401zM20.931 16.587c-0.538 0-0.992 0.425-0.992 0.992s0.453 0.992 0.992 0.992c0.567 0 1.020-0.425 1.020-0.992s-0.453-0.992-1.020-0.992zM11.069 16.587c0.539 0 0.992 0.425 0.992 0.992s-0.453 0.992-0.992 0.992c-0.567 0-1.020-0.425-1.020-0.992s0.454-0.992 1.020-0.992z"></path>
</symbol>
<symbol id="icon-coach" viewBox="0 0 32 32">
<path fill="#fe753f" style="fill: var(--color2, #fe753f)" opacity="0.1" d="M3.478 0h25.043c1.921 0 3.478 1.557 3.478 3.478v25.043c0 1.921-1.557 3.478-3.478 3.478h-25.043c-1.921 0-3.478-1.557-3.478-3.478v-25.043c0-1.921 1.557-3.478 3.478-3.478z"></path>
<path fill="#fe753f" style="fill: var(--color2, #fe753f)" d="M11.511 14.833v1.095h3.98v-4.797h-4.71c-0.574 0-1.043 0.469-1.043 1.043v1.286h0.382c0.782 0 1.391 0.608 1.391 1.373z"></path>
<path fill="#fe753f" style="fill: var(--color2, #fe753f)" d="M20.306 14.833c0-0.765 0.626-1.373 1.373-1.373h0.382v-1.286c0-0.574-0.469-1.043-1.043-1.043h-4.693v4.797h3.98v-1.095z"></path>
<path fill="#fe753f" style="fill: var(--color2, #fe753f)" d="M22.791 14.277h-1.112c-0.313 0-0.556 0.243-0.556 0.556v1.756c0 0.104-0.070 0.174-0.174 0.174h-10.081c-0.104 0-0.174-0.070-0.174-0.174v-1.756c0-0.313-0.243-0.556-0.556-0.556h-1.112c-0.747 0-1.373 0.608-1.373 1.373 0 0.747 0.608 1.373 1.373 1.373v1.391c0 0.556 0.434 1.008 0.973 1.026v0.556c0 0.226 0.191 0.417 0.417 0.417h0.956c0.226 0 0.417-0.191 0.417-0.417v-0.556h8.274v0.556c0 0.226 0.191 0.417 0.417 0.417h0.956c0.226 0 0.417-0.191 0.417-0.417v-0.574c0.539-0.035 0.973-0.469 0.973-1.026v-1.391c0.747 0 1.373-0.608 1.373-1.373-0.035-0.747-0.643-1.356-1.408-1.356z"></path>
</symbol>
<symbol id="icon-pool" viewBox="0 0 32 32">
<path fill="#fe753f" style="fill: var(--color2, #fe753f)" opacity="0.1" d="M3.478 0h25.043c1.921 0 3.478 1.557 3.478 3.478v25.043c0 1.921-1.557 3.478-3.478 3.478h-25.043c-1.921 0-3.478-1.557-3.478-3.478v-25.043c0-1.921 1.557-3.478 3.478-3.478z"></path>
<path fill="#fe753f" style="fill: var(--color2, #fe753f)" d="M20.524 15.949c1.010 0.118 1.925-0.605 2.043-1.615s-0.605-1.925-1.615-2.043c-1.010-0.118-1.925 0.605-2.043 1.615s0.605 1.925 1.615 2.043z"></path>
<path fill="#fe753f" style="fill: var(--color2, #fe753f)" d="M12.502 14.451l2.74-0.547 0.589 0.947-2.134 2.030c0.33 0.083 0.646 0.207 0.94 0.369 0.141 0.078 0.273 0.168 0.401 0.254 0.206 0.14 0.4 0.275 0.592 0.327 0.152 0.042 0.351 0.044 0.364 0.045 0.271-0.002 0.509-0.078 0.752-0.236 0.633-0.413 1.41-0.84 2.373-0.882 0.071-0.003 0.143-0.005 0.214-0.005 0.309 0 0.611 0.030 0.9 0.089-0.198-0.317-3.73-4.597-3.73-4.597l-0.093-0.111c-0.228-0.271-0.609-0.384-0.961-0.255l-3.326 1.22c-0.321 0.117-0.517 0.454-0.448 0.799 0.076 0.381 0.447 0.629 0.829 0.553z"></path>
<path fill="#fe753f" style="fill: var(--color2, #fe753f)" d="M24.612 18.707c-0.453 0.203-0.791 0.286-1.167 0.286-0.148 0-0.301-0.013-0.468-0.041-0.556-0.099-0.952-0.42-1.335-0.73-0.236-0.191-0.458-0.371-0.716-0.504-0.466-0.242-1.026-0.369-1.621-0.369-0.062 0-0.124 0.001-0.186 0.004-0.813 0.036-1.473 0.397-2.064 0.783-0.347 0.226-0.759 0.335-1.132 0.335-0.113 0-0.342-0.025-0.491-0.068-0.286-0.082-0.53-0.249-0.767-0.409-0.122-0.083-0.237-0.161-0.353-0.225-0.497-0.274-1.071-0.419-1.66-0.419h-0.012c-0.824 0.003-1.57 0.256-2.156 0.731-0.816 0.662-1.354 0.848-1.508 0.875 0 0-0.129 0.034-0.405 0.034-0.53 0-0.972-0.174-1.417-0.367-0.312-0.136-0.606-0.214-0.894-0.236 0.056 0.032 0.109 0.066 0.161 0.101 0.226 0.157 0.411 0.348 0.591 0.533 0.096 0.099 0.187 0.192 0.283 0.281 0.377 0.347 1.156 0.757 2.052 0.757 0.455 0 0.895-0.099 1.307-0.294 0.122-0.057 0.24-0.126 0.365-0.198 0.208-0.12 0.423-0.241 0.662-0.321 0.302-0.102 0.77-0.068 0.77-0.068 0.485 0.031 0.849 0.26 1.111 0.457 0.8 0.598 1.554 0.88 2.374 0.888l0.042 0c0.564 0 1.081-0.109 1.535-0.323 0.211-0.1 0.413-0.247 0.626-0.403 0.401-0.293 0.815-0.595 1.348-0.616 0.032-0.001 0.064-0.002 0.097-0.002 0.292 0 0.732 0.051 1.168 0.293 0.525 0.292 1.161 0.59 1.894 0.59 0.107 0 0.215-0.006 0.323-0.018 0.675-0.076 1.246-0.325 1.696-0.74 0.097-0.089 0.187-0.183 0.284-0.282 0.205-0.211 0.417-0.43 0.685-0.596 0.020-0.013 0.040-0.025 0.061-0.036-0.324 0.029-0.667 0.13-1.084 0.317z"></path>
</symbol>
<symbol id="icon-house" viewBox="0 0 32 32">
<path fill="#fe753f" style="fill: var(--color2, #fe753f)" opacity="0.1" d="M9.482 31.966h2.37c0.309 0 0.551-0.243 0.551-0.551v-5.391c0-2.017 1.632-3.649 3.649-3.649 0.97 0 1.885 0.386 2.58 1.069 0.683 0.694 1.069 1.609 1.069 2.58v5.391c0 0.309 0.243 0.551 0.551 0.551h2.37c3.241 0 5.887-2.646 5.887-5.887v-14.761c0-0.154-0.066-0.309-0.176-0.408l-11.906-10.77c-0.209-0.187-0.54-0.187-0.75 0l-11.906 10.77c-0.11 0.099-0.176 0.254-0.176 0.408v14.761c0 3.241 2.646 5.887 5.887 5.887z"></path>
<path fill="#fe753f" style="fill: var(--color2, #fe753f)" opacity="0.1" d="M10.555 17.615h12.36v14.385h-12.36v-14.385z"></path>
</symbol>
<symbol id="icon-quote" viewBox="0 0 32 32">
<path fill="#2e6eff" style="fill: var(--color3, #2e6eff)" opacity="0.1" d="M19.144 24.505c-0.8 0.336-1.136 1.291-0.774 2.065l1.265 2.659c0.361 0.748 1.239 1.084 2.014 0.748 2.194-0.929 4.079-2.143 5.576-3.614 1.833-1.729 3.072-3.717 3.743-5.911 0.671-2.22 1.033-5.24 1.033-9.087v-7.925c0-0.852-0.697-1.549-1.549-1.549h-10.145c-0.852 0-1.549 0.697-1.549 1.549l-0 10.145c0 0.852 0.697 1.549 1.549 1.549h4.853c-0.052 2.608-0.671 4.698-1.807 6.273-0.929 1.264-2.323 2.297-4.208 3.098z"></path>
<path fill="#2e6eff" style="fill: var(--color3, #2e6eff)" opacity="0.1" d="M0.919 24.505c-0.8 0.336-1.136 1.291-0.774 2.065l1.265 2.633c0.361 0.749 1.239 1.084 2.014 0.749 2.168-0.929 4.027-2.143 5.55-3.588 1.833-1.755 3.098-3.743 3.769-5.937 0.671-2.168 1.006-5.189 1.006-9.061v-7.925c0-0.852-0.697-1.549-1.549-1.549h-10.145c-0.852 0-1.549 0.697-1.549 1.549v10.145c0 0.852 0.697 1.549 1.549 1.549h4.879c-0.052 2.608-0.671 4.698-1.807 6.273-0.929 1.265-2.323 2.297-4.208 3.098z"></path>
</symbol>
<symbol id="icon-arrow" viewBox="0 0 32 32">
<path stroke-linejoin="round" stroke-linecap="round" stroke-miterlimit="4" stroke-width="4" d="M2.667 9.333l13.333 13.333 13.333-13.333"></path>
</symbol>
<symbol id="icon-heart" viewBox="0 0 37 32">
<path   d="M18.286 32c-0.252 0-0.503-0.088-0.705-0.264-1.559-1.357-3.042-2.616-4.436-3.799-7.872-6.678-13.144-11.091-13.144-17.519 0-5.94 4.217-10.419 9.714-10.419 4.333 0 7.114 3.014 8.571 5.727 1.457-2.714 4.239-5.727 8.571-5.727 5.497 0 9.714 4.479 9.714 10.419 0 6.428-5.273 10.841-13.144 17.519-1.395 1.183-2.877 2.442-4.436 3.799-0.202 0.176-0.453 0.264-0.705 0.264z"></path>
</symbol>
<symbol id="icon-facebook" viewBox="0 0 32 32">
<path d="M21.329 5.313h2.921v-5.088c-0.504-0.069-2.237-0.225-4.256-0.225-4.212 0-7.097 2.649-7.097 7.519v4.481h-4.648v5.688h4.648v14.312h5.699v-14.311h4.46l0.708-5.688h-5.169v-3.919c0.001-1.644 0.444-2.769 2.735-2.769z"></path>
</symbol>
<symbol id="icon-instagram" viewBox="0 0 32 32">
<path d="M31.969 9.408c-0.075-1.7-0.35-2.869-0.744-3.882-0.406-1.075-1.032-2.038-1.851-2.838-0.8-0.813-1.769-1.444-2.832-1.844-1.019-0.394-2.182-0.669-3.882-0.744-1.713-0.081-2.257-0.1-6.601-0.1s-4.888 0.019-6.595 0.094c-1.7 0.075-2.869 0.35-3.882 0.744-1.075 0.406-2.038 1.031-2.838 1.85-0.813 0.8-1.444 1.769-1.844 2.832-0.394 1.019-0.669 2.182-0.744 3.882-0.081 1.713-0.1 2.257-0.1 6.601s0.019 4.888 0.094 6.595c0.075 1.7 0.35 2.869 0.744 3.882 0.406 1.075 1.038 2.038 1.85 2.838 0.8 0.813 1.769 1.444 2.832 1.844 1.019 0.394 2.182 0.669 3.882 0.744 1.706 0.075 2.25 0.094 6.595 0.094s4.888-0.019 6.595-0.094c1.7-0.075 2.869-0.35 3.882-0.744 2.151-0.832 3.851-2.532 4.682-4.682 0.394-1.019 0.669-2.182 0.744-3.882 0.075-1.707 0.094-2.251 0.094-6.595s-0.006-4.888-0.081-6.595zM29.087 22.473c-0.069 1.563-0.331 2.407-0.55 2.969-0.538 1.394-1.644 2.5-3.038 3.038-0.563 0.219-1.413 0.481-2.969 0.55-1.688 0.075-2.194 0.094-6.464 0.094s-4.782-0.019-6.464-0.094c-1.563-0.069-2.407-0.331-2.969-0.55-0.694-0.256-1.325-0.663-1.838-1.194-0.531-0.519-0.938-1.144-1.194-1.838-0.219-0.563-0.481-1.413-0.55-2.969-0.075-1.688-0.094-2.194-0.094-6.464s0.019-4.782 0.094-6.464c0.069-1.563 0.331-2.407 0.55-2.969 0.256-0.694 0.663-1.325 1.2-1.838 0.519-0.531 1.144-0.938 1.838-1.194 0.563-0.219 1.413-0.481 2.969-0.55 1.688-0.075 2.194-0.094 6.464-0.094 4.276 0 4.782 0.019 6.464 0.094 1.563 0.069 2.407 0.331 2.969 0.55 0.694 0.256 1.325 0.662 1.838 1.194 0.531 0.519 0.938 1.144 1.194 1.838 0.219 0.563 0.481 1.413 0.55 2.969 0.075 1.688 0.094 2.194 0.094 6.464s-0.019 4.77-0.094 6.458z"></path>
<path d="M16.059 7.783c-4.538 0-8.22 3.682-8.22 8.22s3.682 8.22 8.22 8.22c4.539 0 8.22-3.682 8.22-8.22s-3.682-8.22-8.22-8.22zM16.059 21.335c-2.944 0-5.332-2.388-5.332-5.332s2.388-5.332 5.332-5.332c2.944 0 5.332 2.388 5.332 5.332s-2.388 5.332-5.332 5.332z"></path>
<path d="M26.524 7.458c0 1.060-0.859 1.919-1.919 1.919s-1.919-0.859-1.919-1.919c0-1.060 0.859-1.919 1.919-1.919s1.919 0.859 1.919 1.919z"></path>
</symbol>
<symbol id="icon-linkedin" viewBox="0 0 32 32">
<path d="M31.992 32v-0.001h0.008v-11.736c0-5.741-1.236-10.164-7.948-10.164-3.227 0-5.392 1.771-6.276 3.449h-0.093v-2.913h-6.364v21.364h6.627v-10.579c0-2.785 0.528-5.479 3.977-5.479 3.399 0 3.449 3.179 3.449 5.657v10.401h6.62z"></path>
<path d="M0.528 10.636h6.635v21.364h-6.635v-21.364z"></path>
<path d="M3.843 0c-2.121 0-3.843 1.721-3.843 3.843s1.721 3.879 3.843 3.879c2.121 0 3.843-1.757 3.843-3.879-0.001-2.121-1.723-3.843-3.843-3.843v0z"></path>
</symbol>
<symbol id="icon-twitter" viewBox="0 0 32 32">
<path d="M32 6.078c-1.19 0.522-2.458 0.868-3.78 1.036 1.36-0.812 2.398-2.088 2.886-3.626-1.268 0.756-2.668 1.29-4.16 1.588-1.204-1.282-2.92-2.076-4.792-2.076-3.632 0-6.556 2.948-6.556 6.562 0 0.52 0.044 1.020 0.152 1.496-5.454-0.266-10.28-2.88-13.522-6.862-0.566 0.982-0.898 2.106-0.898 3.316 0 2.272 1.17 4.286 2.914 5.452-1.054-0.020-2.088-0.326-2.964-0.808 0 0.020 0 0.046 0 0.072 0 3.188 2.274 5.836 5.256 6.446-0.534 0.146-1.116 0.216-1.72 0.216-0.42 0-0.844-0.024-1.242-0.112 0.85 2.598 3.262 4.508 6.13 4.57-2.232 1.746-5.066 2.798-8.134 2.798-0.538 0-1.054-0.024-1.57-0.090 2.906 1.874 6.35 2.944 10.064 2.944 12.072 0 18.672-10 18.672-18.668 0-0.29-0.010-0.57-0.024-0.848 1.302-0.924 2.396-2.078 3.288-3.406z"></path>
</symbol>
<symbol id="icon-instagram1" viewBox="0 0 32 32">
<path d="M16 2.881c4.275 0 4.781 0.019 6.462 0.094 1.563 0.069 2.406 0.331 2.969 0.55 0.744 0.288 1.281 0.638 1.837 1.194 0.563 0.563 0.906 1.094 1.2 1.838 0.219 0.563 0.481 1.412 0.55 2.969 0.075 1.688 0.094 2.194 0.094 6.463s-0.019 4.781-0.094 6.463c-0.069 1.563-0.331 2.406-0.55 2.969-0.288 0.744-0.637 1.281-1.194 1.837-0.563 0.563-1.094 0.906-1.837 1.2-0.563 0.219-1.413 0.481-2.969 0.55-1.688 0.075-2.194 0.094-6.463 0.094s-4.781-0.019-6.463-0.094c-1.563-0.069-2.406-0.331-2.969-0.55-0.744-0.288-1.281-0.637-1.838-1.194-0.563-0.563-0.906-1.094-1.2-1.837-0.219-0.563-0.481-1.413-0.55-2.969-0.075-1.688-0.094-2.194-0.094-6.463s0.019-4.781 0.094-6.463c0.069-1.563 0.331-2.406 0.55-2.969 0.288-0.744 0.638-1.281 1.194-1.838 0.563-0.563 1.094-0.906 1.838-1.2 0.563-0.219 1.412-0.481 2.969-0.55 1.681-0.075 2.188-0.094 6.463-0.094zM16 0c-4.344 0-4.887 0.019-6.594 0.094-1.7 0.075-2.869 0.35-3.881 0.744-1.056 0.412-1.95 0.956-2.837 1.85-0.894 0.888-1.438 1.781-1.85 2.831-0.394 1.019-0.669 2.181-0.744 3.881-0.075 1.713-0.094 2.256-0.094 6.6s0.019 4.887 0.094 6.594c0.075 1.7 0.35 2.869 0.744 3.881 0.413 1.056 0.956 1.95 1.85 2.837 0.887 0.887 1.781 1.438 2.831 1.844 1.019 0.394 2.181 0.669 3.881 0.744 1.706 0.075 2.25 0.094 6.594 0.094s4.888-0.019 6.594-0.094c1.7-0.075 2.869-0.35 3.881-0.744 1.050-0.406 1.944-0.956 2.831-1.844s1.438-1.781 1.844-2.831c0.394-1.019 0.669-2.181 0.744-3.881 0.075-1.706 0.094-2.25 0.094-6.594s-0.019-4.887-0.094-6.594c-0.075-1.7-0.35-2.869-0.744-3.881-0.394-1.063-0.938-1.956-1.831-2.844-0.887-0.887-1.781-1.438-2.831-1.844-1.019-0.394-2.181-0.669-3.881-0.744-1.712-0.081-2.256-0.1-6.6-0.1v0z"></path>
<path d="M16 7.781c-4.537 0-8.219 3.681-8.219 8.219s3.681 8.219 8.219 8.219 8.219-3.681 8.219-8.219c0-4.537-3.681-8.219-8.219-8.219zM16 21.331c-2.944 0-5.331-2.387-5.331-5.331s2.387-5.331 5.331-5.331c2.944 0 5.331 2.387 5.331 5.331s-2.387 5.331-5.331 5.331z"></path>
<path d="M26.462 7.456c0 1.060-0.859 1.919-1.919 1.919s-1.919-0.859-1.919-1.919c0-1.060 0.859-1.919 1.919-1.919s1.919 0.859 1.919 1.919z"></path>
</symbol>
</defs>
</svg>
